<svg width="30" height="30" viewBox="0 0 30 30" fill="none" xmlns="http://www.w3.org/2000/svg">
<circle cx="15" cy="15" r="15" fill="#3B5998"/>
<path d="M11.205 9.74977C11.2048 10.1476 11.0466 10.5291 10.7651 10.8102C10.4837 11.0914 10.1021 11.2492 9.70427 11.249C9.30644 11.2488 8.92499 11.0906 8.64383 10.8092C8.36266 10.5277 8.20482 10.1461 8.20502 9.74827C8.20522 9.35045 8.36344 8.969 8.64489 8.68783C8.92633 8.40667 9.30794 8.24882 9.70577 8.24902C10.1036 8.24922 10.485 8.40745 10.7662 8.68889C11.0474 8.97034 11.2052 9.35195 11.205 9.74977ZM11.25 12.3598H8.25002V21.7498H11.25V12.3598ZM15.99 12.3598H13.005V21.7498H15.96V16.8223C15.96 14.0773 19.5375 13.8223 19.5375 16.8223V21.7498H22.5V15.8023C22.5 11.1748 17.205 11.3473 15.96 13.6198L15.99 12.3598Z" fill="white"/>
</svg>
