<svg width="30" height="30" viewBox="0 0 30 30" fill="none" xmlns="http://www.w3.org/2000/svg">
<circle cx="15" cy="15" r="15" fill="#2B2B2B"/>
<path d="M18.8333 9.85C18.2637 9.19969 17.9498 8.36453 17.95 7.5H15.375V17.8333C15.3551 18.3925 15.1191 18.9222 14.7165 19.3108C14.3139 19.6994 13.7762 19.9166 13.2167 19.9167C12.0333 19.9167 11.05 18.95 11.05 17.75C11.05 16.3167 12.4333 15.2417 13.8583 15.6833V13.05C10.9833 12.6667 8.46667 14.9 8.46667 17.75C8.46667 20.525 10.7667 22.5 13.2083 22.5C15.825 22.5 17.95 20.375 17.95 17.75V12.5083C18.9942 13.2582 20.2478 13.6605 21.5333 13.6583V11.0833C21.5333 11.0833 19.9667 11.1583 18.8333 9.85Z" fill="white"/>
</svg>
