<svg xmlns="http://www.w3.org/2000/svg" xmlns:xlink="http://www.w3.org/1999/xlink" width="500" zoomAndPan="magnify" viewBox="0 0 375 374.999991" height="500" preserveAspectRatio="xMidYMid meet" version="1.0"><defs><clipPath id="f8b3dfc0de"><path d="M 59.273438 59.273438 L 315.726562 59.273438 L 315.726562 315.726562 L 59.273438 315.726562 Z M 59.273438 59.273438 " clip-rule="nonzero"/></clipPath><clipPath id="a673da306a"><path d="M 187.5 59.273438 C 116.683594 59.273438 59.273438 116.683594 59.273438 187.5 C 59.273438 258.316406 116.683594 315.726562 187.5 315.726562 C 258.316406 315.726562 315.726562 258.316406 315.726562 187.5 C 315.726562 116.683594 258.316406 59.273438 187.5 59.273438 Z M 187.5 59.273438 " clip-rule="nonzero"/></clipPath><clipPath id="877090aece"><path d="M 27.335938 27.335938 L 347.585938 27.335938 L 347.585938 347.585938 L 27.335938 347.585938 Z M 27.335938 27.335938 " clip-rule="nonzero"/></clipPath></defs><g clip-path="url(#f8b3dfc0de)"><g clip-path="url(#a673da306a)"><path fill="#ffffff" d="M 59.273438 59.273438 L 315.726562 59.273438 L 315.726562 315.726562 L 59.273438 315.726562 Z M 59.273438 59.273438 " fill-opacity="1" fill-rule="nonzero"/></g></g><path fill="#030179" d="M 243.160156 159.890625 L 131.835938 159.890625 C 125.519531 159.890625 120.398438 165.011719 120.398438 171.328125 C 120.398438 177.644531 125.519531 182.765625 131.835938 182.765625 L 131.835938 190.390625 C 131.835938 196.707031 136.957031 201.828125 143.273438 201.828125 C 149.589844 201.828125 154.710938 196.707031 154.710938 190.390625 L 154.710938 182.765625 L 220.28125 182.765625 L 220.28125 190.390625 C 220.28125 196.707031 225.402344 201.828125 231.71875 201.828125 C 238.035156 201.828125 243.15625 196.707031 243.15625 190.390625 L 243.15625 182.765625 C 249.472656 182.765625 254.59375 177.644531 254.59375 171.328125 C 254.59375 165.011719 249.472656 159.890625 243.160156 159.890625 Z M 243.160156 159.890625 " fill-opacity="1" fill-rule="nonzero"/><path fill="#030179" d="M 187.496094 106.515625 C 174.863281 106.515625 164.621094 116.757812 164.621094 129.390625 L 210.371094 129.390625 C 210.371094 116.757812 200.128906 106.515625 187.496094 106.515625 Z M 187.496094 106.515625 " fill-opacity="1" fill-rule="nonzero"/><g clip-path="url(#877090aece)"><path fill="#030179" d="M 187.496094 27.335938 C 99.042969 27.335938 27.335938 99.042969 27.335938 187.496094 C 27.335938 275.949219 99.042969 347.65625 187.496094 347.65625 C 275.949219 347.65625 347.65625 275.949219 347.65625 187.496094 C 347.65625 99.042969 275.949219 27.335938 187.496094 27.335938 Z M 285.09375 255.964844 C 285.09375 268.597656 274.851562 278.839844 262.21875 278.839844 L 112.773438 278.839844 C 100.140625 278.839844 89.898438 268.597656 89.898438 255.964844 L 89.898438 152.265625 C 89.898438 139.632812 100.140625 129.394531 112.773438 129.394531 L 141.746094 129.394531 C 141.75 104.125 162.230469 83.644531 187.496094 83.644531 C 212.761719 83.644531 233.246094 104.125 233.246094 129.390625 L 262.21875 129.390625 C 274.851562 129.390625 285.09375 139.632812 285.09375 152.265625 Z M 285.09375 255.964844 " fill-opacity="1" fill-rule="nonzero"/></g></svg>